<svg width="33" height="33" viewBox="0 0 33 33" fill="none" xmlns="http://www.w3.org/2000/svg">
<path d="M29.9062 16.5H24.75V12.375C24.75 10.0998 26.5998 8.25 28.875 8.25H29.3906C30.2479 8.25 30.9375 7.56035 30.9375 6.70312V3.60938C30.9375 2.75215 30.2479 2.0625 29.3906 2.0625H28.875C23.1773 2.0625 18.5625 6.67734 18.5625 12.375V27.8438C18.5625 29.5518 19.9482 30.9375 21.6562 30.9375H29.9062C31.6143 30.9375 33 29.5518 33 27.8438V19.5938C33 17.8857 31.6143 16.5 29.9062 16.5ZM11.3438 16.5H6.1875V12.375C6.1875 10.0998 8.0373 8.25 10.3125 8.25H10.8281C11.6854 8.25 12.375 7.56035 12.375 6.70312V3.60938C12.375 2.75215 11.6854 2.0625 10.8281 2.0625H10.3125C4.61484 2.0625 0 6.67734 0 12.375V27.8438C0 29.5518 1.38574 30.9375 3.09375 30.9375H11.3438C13.0518 30.9375 14.4375 29.5518 14.4375 27.8438V19.5938C14.4375 17.8857 13.0518 16.5 11.3438 16.5Z" fill="#30CEB1"/>
</svg>
